RobotoSerifText-Light.ufo
<glyph name="dollar" format="1">
  <advance width="560"/>
  <unicode hex="0024"/>
  <outline>
    <contour>
      <point x="263" y="788" type="line"/>
      <point x="263" y="682" type="line"/>
      <point x="263" y="670" type="line"/>
      <point x="263" y="37" type="line"/>
      <point x="263" y="30" type="line"/>
      <point x="263" y="-120" type="line"/>
      <point x="310" y="-120" type="line"/>
      <point x="310" y="29" type="line"/>
      <point x="310" y="37" type="line"/>
      <point x="310" y="669" type="line"/>
      <point x="310" y="681" type="line"/>
      <point x="310" y="788" type="line"/>
    </contour>
    <contour>
      <point x="290" y="52" type="curve" smooth="yes"/>
      <point x="203" y="52"/>
      <point x="122" y="83"/>
      <point x="83" y="139" type="curve"/>
      <point x="75" y="123"/>
      <point x="94" y="99"/>
      <point x="115" y="87" type="curve"/>
      <point x="115" y="200" type="line"/>
      <point x="46" y="200" type="line"/>
      <point x="46" y="94" type="line"/>
      <point x="90" y="50"/>
      <point x="182" y="10"/>
      <point x="292" y="10" type="curve" smooth="yes"/>
      <point x="418" y="10"/>
      <point x="517" y="74"/>
      <point x="517" y="201" type="curve" smooth="yes"/>
      <point x="517" y="324"/>
      <point x="409" y="364"/>
      <point x="315" y="389" type="curve" smooth="yes"/>
      <point x="221" y="413"/>
      <point x="129" y="436"/>
      <point x="129" y="532" type="curve" smooth="yes"/>
      <point x="129" y="612"/>
      <point x="192" y="656"/>
      <point x="297" y="656" type="curve" smooth="yes"/>
      <point x="374" y="656"/>
      <point x="432" y="629"/>
      <point x="461" y="591" type="curve"/>
      <point x="467" y="613"/>
      <point x="447" y="637"/>
      <point x="426" y="640" type="curve"/>
      <point x="426" y="539" type="line"/>
      <point x="495" y="539" type="line"/>
      <point x="495" y="637" type="line"/>
      <point x="462" y="665"/>
      <point x="390" y="698"/>
      <point x="294" y="698" type="curve" smooth="yes"/>
      <point x="163" y="698"/>
      <point x="74" y="633"/>
      <point x="74" y="526" type="curve" smooth="yes"/>
      <point x="74" y="401"/>
      <point x="177" y="368"/>
      <point x="268" y="344" type="curve" smooth="yes"/>
      <point x="364" y="318"/>
      <point x="460" y="299"/>
      <point x="460" y="190" type="curve" smooth="yes"/>
      <point x="460" y="92"/>
      <point x="391" y="52"/>
    </contour>
  </outline>
</glyph>
<glyph name="three" format="1">
  <advance width="560"/>
  <unicode hex="0033"/>
  <outline>
    <contour>
      <point x="274" y="-46" type="curve" smooth="yes"/>
      <point x="376" y="-46"/>
      <point x="444" y="10"/>
      <point x="444" y="110" type="curve" smooth="yes"/>
      <point x="444" y="203"/>
      <point x="387" y="262"/>
      <point x="256" y="262" type="curve" smooth="yes"/>
      <point x="184" y="262" type="line"/>
      <point x="184" y="305" type="line"/>
      <point x="244" y="305" type="line" smooth="yes"/>
      <point x="346" y="305"/>
      <point x="415" y="351"/>
      <point x="415" y="442" type="curve" smooth="yes"/>
      <point x="415" y="536"/>
      <point x="353" y="574"/>
      <point x="274" y="574" type="curve" smooth="yes"/>
      <point x="192" y="574"/>
      <point x="140" y="538"/>
      <point x="111" y="499" type="curve"/>
      <point x="114" y="530"/>
      <point x="130" y="553"/>
      <point x="142" y="556" type="curve"/>
      <point x="142" y="451" type="line"/>
      <point x="75" y="451" type="line"/>
      <point x="75" y="536" type="line"/>
      <point x="105" y="572"/>
      <point x="173" y="618"/>
      <point x="276" y="618" type="curve" smooth="yes"/>
      <point x="395" y="618"/>
      <point x="481" y="553"/>
      <point x="481" y="454" type="curve" smooth="yes"/>
      <point x="481" y="342"/>
      <point x="374" y="280"/>
      <point x="250" y="280" type="curve"/>
      <point x="268" y="290" type="line"/>
      <point x="448" y="290"/>
      <point x="510" y="210"/>
      <point x="510" y="110" type="curve" smooth="yes"/>
      <point x="510" y="-8"/>
      <point x="411" y="-90"/>
      <point x="274" y="-90" type="curve" smooth="yes"/>
      <point x="146" y="-90"/>
      <point x="63" y="-20"/>
      <point x="25" y="73" type="curve"/>
      <point x="60" y="104" type="line"/>
      <point x="91" y="31"/>
      <point x="157" y="-46"/>
    </contour>
  </outline>
</glyph>
<glyph name="four" format="1">
  <advance width="560"/>
  <unicode hex="0034"/>
  <outline>
    <contour>
      <point x="35" y="112" type="line"/>
      <point x="548" y="112" type="line"/>
      <point x="548" y="162" type="line"/>
      <point x="59" y="162" type="line"/>
      <point x="65" y="131" type="line"/>
      <point x="370" y="586" type="line"/>
      <point x="390" y="609" type="line"/>
      <point x="333" y="609" type="line"/>
      <point x="35" y="166" type="line"/>
    </contour>
    <contour>
      <point x="421" y="-77" type="line"/>
      <point x="421" y="609" type="line"/>
      <point x="361" y="609" type="line"/>
      <point x="357" y="587" type="line"/>
      <point x="357" y="-77" type="line"/>
    </contour>
  </outline>
</glyph>
<glyph name="A" format="1">
  <advance width="688"/>
  <unicode hex="0041"/>
  <outline>
    <contour>
      <point x="184" y="299" type="line"/>
      <point x="178" y="257" type="line"/>
      <point x="491" y="257" type="line"/>
      <point x="490" y="299" type="line"/>
    </contour>
    <contour>
      <point x="679" y="0" type="line"/>
      <point x="679" y="38" type="line"/>
      <point x="674" y="38" type="line"/>
      <point x="640" y="38"/>
      <point x="618" y="40"/>
      <point x="609" y="66" type="curve" smooth="yes"/>
      <point x="381" y="710" type="line"/>
      <point x="325" y="710" type="line"/>
      <point x="325" y="689" type="line"/>
      <point x="548" y="48" type="line"/>
      <point x="548" y="41"/>
      <point x="500" y="38"/>
      <point x="462" y="38" type="curve" smooth="yes"/>
      <point x="445" y="38" type="line"/>
      <point x="445" y="0" type="line"/>
    </contour>
    <contour>
      <point x="9" y="0" type="line"/>
      <point x="225" y="0" type="line"/>
      <point x="225" y="38" type="line"/>
      <point x="210" y="38" type="line" smooth="yes"/>
      <point x="172" y="38"/>
      <point x="126" y="45"/>
      <point x="126" y="56" type="curve"/>
      <point x="352" y="710" type="line"/>
      <point x="303" y="710" type="line"/>
      <point x="84" y="81" type="line" smooth="yes"/>
      <point x="71" y="44"/>
      <point x="51" y="38"/>
      <point x="14" y="38" type="curve"/>
      <point x="9" y="38" type="line"/>
    </contour>
    <contour>
      <point x="340" y="721" type="move" name="top"/>
    </contour>
    <contour>
      <point x="543" y="0" type="move" name="right"/>
    </contour>
    <contour>
      <point x="340" y="0" type="move" name="bottom"/>
    </contour>
  </outline>
</glyph>
<glyph name="I" format="1">
  <advance width="347"/>
  <unicode hex="0049"/>
  <outline>
    <contour>
      <point x="141" y="74" type="line" smooth="yes"/>
      <point x="141" y="45"/>
      <point x="105" y="38"/>
      <point x="56" y="38" type="curve" smooth="yes"/>
      <point x="45" y="38" type="line"/>
      <point x="45" y="0" type="line"/>
      <point x="302" y="0" type="line"/>
      <point x="302" y="38" type="line"/>
      <point x="291" y="38" type="line" smooth="yes"/>
      <point x="242" y="38"/>
      <point x="206" y="45"/>
      <point x="206" y="74" type="curve" smooth="yes"/>
      <point x="206" y="636" type="line" smooth="yes"/>
      <point x="206" y="665"/>
      <point x="242" y="672"/>
      <point x="291" y="672" type="curve" smooth="yes"/>
      <point x="302" y="672" type="line"/>
      <point x="302" y="710" type="line"/>
      <point x="45" y="710" type="line"/>
      <point x="45" y="672" type="line"/>
      <point x="56" y="672" type="line" smooth="yes"/>
      <point x="105" y="672"/>
      <point x="141" y="665"/>
      <point x="141" y="636" type="curve" smooth="yes"/>
    </contour>
    <contour>
      <point x="174" y="741" type="move" name="top"/>
    </contour>
    <contour>
      <point x="227" y="0" type="move" name="right"/>
    </contour>
    <contour>
      <point x="174" y="0" type="move" name="bottom"/>
    </contour>
  </outline>
</glyph>
<glyph name="K" format="1">
  <advance width="698"/>
  <unicode hex="004B"/>
  <outline>
    <contour>
      <point x="45" y="0" type="line"/>
      <point x="302" y="0" type="line"/>
      <point x="302" y="38" type="line"/>
      <point x="293" y="38" type="line" smooth="yes"/>
      <point x="255" y="38"/>
      <point x="206" y="41"/>
      <point x="206" y="48" type="curve" smooth="yes"/>
      <point x="206" y="662" type="line" smooth="yes"/>
      <point x="206" y="669"/>
      <point x="255" y="672"/>
      <point x="293" y="672" type="curve" smooth="yes"/>
      <point x="302" y="672" type="line"/>
      <point x="302" y="710" type="line"/>
      <point x="45" y="710" type="line"/>
      <point x="45" y="672" type="line"/>
      <point x="56" y="672" type="line" smooth="yes"/>
      <point x="105" y="672"/>
      <point x="141" y="665"/>
      <point x="141" y="636" type="curve" smooth="yes"/>
      <point x="141" y="74" type="line" smooth="yes"/>
      <point x="141" y="45"/>
      <point x="105" y="38"/>
      <point x="56" y="38" type="curve" smooth="yes"/>
      <point x="45" y="38" type="line"/>
    </contour>
    <contour>
      <point x="429" y="0" type="line"/>
      <point x="683" y="0" type="line"/>
      <point x="683" y="38" type="line"/>
      <point x="672" y="38" type="line" smooth="yes"/>
      <point x="627" y="38"/>
      <point x="609" y="42"/>
      <point x="583" y="71" type="curve" smooth="yes"/>
      <point x="292" y="391" type="line"/>
      <point x="294" y="357" type="line"/>
      <point x="567" y="643" type="line" smooth="yes"/>
      <point x="588" y="666"/>
      <point x="610" y="672"/>
      <point x="646" y="672" type="curve" smooth="yes"/>
      <point x="662" y="672" type="line"/>
      <point x="662" y="710" type="line"/>
      <point x="435" y="710" type="line"/>
      <point x="435" y="672" type="line"/>
      <point x="444" y="672" type="line" smooth="yes"/>
      <point x="481" y="672"/>
      <point x="522" y="669"/>
      <point x="524" y="662" type="curve"/>
      <point x="243" y="366" type="line"/>
      <point x="243" y="355" type="line"/>
      <point x="522" y="48" type="line"/>
      <point x="522" y="41"/>
      <point x="475" y="38"/>
      <point x="438" y="38" type="curve" smooth="yes"/>
      <point x="429" y="38" type="line"/>
    </contour>
    <contour>
      <point x="357" y="741" type="move" name="top"/>
    </contour>
    <contour>
      <point x="357" y="0" type="move" name="bottom"/>
    </contour>
  </outline>
</glyph>
<glyph name="S" format="1">
  <advance width="621"/>
  <unicode hex="0053"/>
  <outline>
    <contour>
      <point x="342" y="34" type="curve" smooth="yes"/>
      <point x="225" y="34"/>
      <point x="138" y="105"/>
      <point x="108" y="221" type="curve"/>
      <point x="57" y="221" type="line"/>
      <point x="57" y="0" type="line"/>
      <point x="101" y="0" type="line"/>
      <point x="113" y="170" type="line"/>
      <point x="108" y="177"/>
      <point x="96" y="168"/>
      <point x="82" y="182" type="curve"/>
      <point x="120" y="51"/>
      <point x="216" y="-10"/>
      <point x="344" y="-10" type="curve" smooth="yes"/>
      <point x="466" y="-10"/>
      <point x="564" y="59"/>
      <point x="564" y="187" type="curve" smooth="yes"/>
      <point x="564" y="325"/>
      <point x="450" y="364"/>
      <point x="339" y="395" type="curve" smooth="yes"/>
      <point x="237" y="423"/>
      <point x="146" y="450"/>
      <point x="146" y="550" type="curve" smooth="yes"/>
      <point x="146" y="630"/>
      <point x="201" y="676"/>
      <point x="293" y="676" type="curve" smooth="yes"/>
      <point x="385" y="676"/>
      <point x="448" y="622"/>
      <point x="478" y="524" type="curve"/>
      <point x="524" y="524" type="line"/>
      <point x="524" y="710" type="line"/>
      <point x="484" y="710" type="line"/>
      <point x="472" y="565" type="line"/>
      <point x="484" y="559"/>
      <point x="490" y="559"/>
      <point x="499" y="562" type="curve"/>
      <point x="463" y="675"/>
      <point x="389" y="720"/>
      <point x="289" y="720" type="curve" smooth="yes"/>
      <point x="173" y="720"/>
      <point x="86" y="653"/>
      <point x="86" y="544" type="curve" smooth="yes"/>
      <point x="86" y="410"/>
      <point x="198" y="371"/>
      <point x="306" y="341" type="curve" smooth="yes"/>
      <point x="407" y="313"/>
      <point x="501" y="286"/>
      <point x="501" y="174" type="curve" smooth="yes"/>
      <point x="501" y="77"/>
      <point x="438" y="34"/>
    </contour>
    <contour>
      <point x="345" y="741" type="move" name="top"/>
    </contour>
    <contour>
      <point x="345" y="0" type="move" name="bottom"/>
    </contour>
  </outline>
</glyph>
<glyph name="bracketleft" format="1">
  <advance width="292"/>
  <unicode hex="005B"/>
  <outline>
    <contour>
      <point x="55" y="750" type="line"/>
      <point x="55" y="-130" type="line"/>
      <point x="114" y="-130" type="line"/>
      <point x="114" y="750" type="line"/>
    </contour>
    <contour>
      <point x="269" y="750" type="line"/>
      <point x="90" y="750" type="line"/>
      <point x="90" y="711" type="line"/>
      <point x="269" y="711" type="line"/>
    </contour>
    <contour>
      <point x="269" y="-91" type="line"/>
      <point x="90" y="-91" type="line"/>
      <point x="90" y="-130" type="line"/>
      <point x="269" y="-130" type="line"/>
    </contour>
  </outline>
</glyph>
<glyph name="l" format="1">
  <advance width="292"/>
  <unicode hex="006C"/>
  <outline>
    <contour>
      <point x="181" y="735" type="line"/>
      <point x="34" y="735" type="line"/>
      <point x="34" y="700" type="line"/>
      <point x="45" y="698" type="line" smooth="yes"/>
      <point x="95" y="689"/>
      <point x="119" y="682"/>
      <point x="119" y="653" type="curve" smooth="yes"/>
      <point x="119" y="71" type="line" smooth="yes"/>
      <point x="119" y="42"/>
      <point x="85" y="35"/>
      <point x="37" y="35" type="curve" smooth="yes"/>
      <point x="35" y="35" type="line"/>
      <point x="35" y="0" type="line"/>
      <point x="265" y="0" type="line"/>
      <point x="265" y="35" type="line"/>
      <point x="263" y="35" type="line" smooth="yes"/>
      <point x="215" y="35"/>
      <point x="181" y="42"/>
      <point x="181" y="71" type="curve" smooth="yes"/>
    </contour>
    <contour>
      <point x="152" y="746" type="move" name="top"/>
    </contour>
    <contour>
      <point x="254" y="735" type="move" name="right"/>
    </contour>
    <contour>
      <point x="307" y="391" type="move" name="mid"/>
    </contour>
    <contour>
      <point x="155" y="0" type="move" name="bottom"/>
    </contour>
  </outline>
</glyph>
<glyph name="w" format="1">
  <advance width="808"/>
  <unicode hex="0077"/>
  <outline>
    <contour>
      <point x="408" y="445" type="line"/>
      <point x="280" y="0" type="line"/>
      <point x="210" y="0" type="line"/>
      <point x="76" y="440" type="line" smooth="yes"/>
      <point x="68" y="465"/>
      <point x="40" y="471"/>
      <point x="9" y="471" type="curve"/>
      <point x="8" y="471" type="line"/>
      <point x="8" y="508" type="line"/>
      <point x="223" y="508" type="line"/>
      <point x="223" y="471" type="line"/>
      <point x="221" y="471" type="line" smooth="yes"/>
      <point x="175" y="471"/>
      <point x="132" y="469"/>
      <point x="132" y="462" type="curve"/>
      <point x="257" y="39" type="line"/>
      <point x="246" y="36" type="line"/>
      <point x="381" y="508" type="line"/>
      <point x="437" y="508" type="line"/>
      <point x="574" y="38" type="line"/>
      <point x="563" y="35" type="line"/>
      <point x="685" y="450" type="line"/>
      <point x="683" y="463"/>
      <point x="647" y="471"/>
      <point x="600" y="471" type="curve" smooth="yes"/>
      <point x="598" y="471" type="line"/>
      <point x="598" y="508" type="line"/>
      <point x="801" y="508" type="line"/>
      <point x="801" y="471" type="line"/>
      <point x="800" y="471" type="line"/>
      <point x="769" y="471"/>
      <point x="736" y="459"/>
      <point x="727" y="428" type="curve" smooth="yes"/>
      <point x="599" y="0" type="line"/>
      <point x="529" y="0" type="line"/>
      <point x="392" y="453" type="line"/>
    </contour>
    <contour>
      <point x="407" y="551" type="move" name="top"/>
    </contour>
  </outline>
</glyph>
<glyph name="asciitilde" format="1">
  <advance width="537"/>
  <unicode hex="007E"/>
  <outline>
    <contour>
      <point x="355" y="268" type="curve" smooth="yes"/>
      <point x="427" y="268"/>
      <point x="458" y="327"/>
      <point x="477" y="390" type="curve"/>
      <point x="435" y="402" type="line"/>
      <point x="425" y="371"/>
      <point x="409" y="322"/>
      <point x="361" y="322" type="curve" smooth="yes"/>
      <point x="295" y="322"/>
      <point x="264" y="399"/>
      <point x="179" y="399" type="curve" smooth="yes"/>
      <point x="108" y="399"/>
      <point x="74" y="346"/>
      <point x="60" y="279" type="curve"/>
      <point x="103" y="268" type="line"/>
      <point x="112" y="306"/>
      <point x="128" y="345"/>
      <point x="174" y="345" type="curve" smooth="yes"/>
      <point x="236" y="345"/>
      <point x="276" y="268"/>
    </contour>
  </outline>
</glyph>
<glyph name="cedilla" format="1">
  <advance width="600"/>
  <unicode hex="00B8"/>
  <outline>
    <contour>
      <point x="303" y="4" type="line"/>
      <point x="254" y="4" type="line"/>
      <point x="223" y="-91" type="line"/>
      <point x="241" y="-91" type="line" smooth="yes"/>
      <point x="302" y="-91"/>
      <point x="323" y="-114"/>
      <point x="323" y="-147" type="curve" smooth="yes"/>
      <point x="323" y="-180"/>
      <point x="300" y="-200"/>
      <point x="268" y="-200" type="curve" smooth="yes"/>
      <point x="227" y="-200"/>
      <point x="205" y="-176"/>
      <point x="186" y="-155" type="curve"/>
      <point x="158" y="-184" type="line"/>
      <point x="181" y="-215"/>
      <point x="215" y="-236"/>
      <point x="268" y="-236" type="curve" smooth="yes"/>
      <point x="327" y="-236"/>
      <point x="379" y="-206"/>
      <point x="379" y="-146" type="curve" smooth="yes"/>
      <point x="379" y="-88"/>
      <point x="325" y="-55"/>
      <point x="253" y="-59" type="curve"/>
      <point x="240" y="-79"/>
      <point x="259" y="-77"/>
      <point x="261" y="-72" type="curve"/>
    </contour>
    <contour>
      <point x="288" y="34" type="move" name="_bottom"/>
    </contour>
  </outline>
</glyph>
<glyph name="oslash" format="1">
  <advance width="585"/>
  <unicode hex="00F8"/>
  <outline>
    <contour>
      <point x="519" y="520" type="line"/>
      <point x="-3" y="-15" type="line"/>
      <point x="59" y="-15" type="line"/>
      <point x="581" y="520" type="line"/>
    </contour>
    <contour>
      <point x="294" y="-12" type="curve"/>
      <point x="438" y="-12"/>
      <point x="542" y="95"/>
      <point x="542" y="253" type="curve" smooth="yes"/>
      <point x="542" y="409"/>
      <point x="438" y="518"/>
      <point x="294" y="518" type="curve" smooth="yes"/>
      <point x="150" y="518"/>
      <point x="47" y="410"/>
      <point x="47" y="253" type="curve" smooth="yes"/>
      <point x="47" y="95"/>
      <point x="150" y="-12"/>
    </contour>
    <contour>
      <point x="294" y="31" type="curve"/>
      <point x="177" y="31"/>
      <point x="111" y="108"/>
      <point x="111" y="253" type="curve" smooth="yes"/>
      <point x="111" y="387"/>
      <point x="181" y="475"/>
      <point x="294" y="475" type="curve" smooth="yes"/>
      <point x="411" y="475"/>
      <point x="477" y="396"/>
      <point x="477" y="253" type="curve" smooth="yes"/>
      <point x="477" y="117"/>
      <point x="407" y="31"/>
    </contour>
    <contour>
      <point x="293" y="551" type="move" name="top"/>
    </contour>
  </outline>
</glyph>
<glyph name="thorn" format="1">
  <advance width="625"/>
  <unicode hex="00FE"/>
  <outline>
    <contour>
      <point x="29" y="-223" type="line"/>
      <point x="278" y="-223" type="line"/>
      <point x="278" y="-188" type="line"/>
      <point x="249" y="-188" type="line" smooth="yes"/>
      <point x="223" y="-188"/>
      <point x="176" y="-185"/>
      <point x="176" y="-178" type="curve"/>
      <point x="176" y="735" type="line"/>
      <point x="29" y="735" type="line"/>
      <point x="29" y="700" type="line"/>
      <point x="39" y="698" type="line" smooth="yes"/>
      <point x="89" y="688"/>
      <point x="113" y="682"/>
      <point x="113" y="653" type="curve" smooth="yes"/>
      <point x="113" y="-152" type="line" smooth="yes"/>
      <point x="113" y="-181"/>
      <point x="79" y="-188"/>
      <point x="31" y="-188" type="curve"/>
      <point x="29" y="-188" type="line"/>
    </contour>
    <contour>
      <point x="514" y="257" type="curve" smooth="yes"/>
      <point x="514" y="122"/>
      <point x="457" y="32"/>
      <point x="349" y="32" type="curve" smooth="yes"/>
      <point x="267" y="32"/>
      <point x="207" y="89"/>
      <point x="162" y="188" type="curve"/>
      <point x="133" y="166" type="line"/>
      <point x="193" y="48"/>
      <point x="250" y="-11"/>
      <point x="352" y="-11" type="curve" smooth="yes"/>
      <point x="490" y="-11"/>
      <point x="580" y="99"/>
      <point x="580" y="257" type="curve" smooth="yes"/>
      <point x="580" y="414"/>
      <point x="493" y="518"/>
      <point x="360" y="518" type="curve" smooth="yes"/>
      <point x="253" y="518"/>
      <point x="197" y="453"/>
      <point x="130" y="334" type="curve"/>
      <point x="156" y="309" type="line"/>
      <point x="207" y="411"/>
      <point x="268" y="475"/>
      <point x="354" y="475" type="curve" smooth="yes"/>
      <point x="458" y="475"/>
      <point x="514" y="391"/>
    </contour>
  </outline>
</glyph>
<glyph name="Aogonek" format="1">
  <advance width="688"/>
  <unicode hex="0104"/>
  <outline>
    <contour>
      <point x="184" y="299" type="line"/>
      <point x="178" y="257" type="line"/>
      <point x="491" y="257" type="line"/>
      <point x="490" y="299" type="line"/>
    </contour>
    <contour>
      <point x="9" y="0" type="line"/>
      <point x="224" y="0" type="line"/>
      <point x="224" y="38" type="line"/>
      <point x="209" y="38" type="line" smooth="yes"/>
      <point x="171" y="38"/>
      <point x="125" y="45"/>
      <point x="125" y="56" type="curve"/>
      <point x="351" y="710" type="line"/>
      <point x="303" y="710" type="line"/>
      <point x="84" y="81" type="line" smooth="yes"/>
      <point x="71" y="44"/>
      <point x="51" y="38"/>
      <point x="14" y="38" type="curve"/>
      <point x="9" y="38" type="line"/>
    </contour>
    <contour>
      <point x="573" y="35" type="curve"/>
      <point x="480" y="-19"/>
      <point x="417" y="-73"/>
      <point x="417" y="-142" type="curve" smooth="yes"/>
      <point x="417" y="-200"/>
      <point x="461" y="-234"/>
      <point x="518" y="-234" type="curve" smooth="yes"/>
      <point x="565" y="-234"/>
      <point x="595" y="-214"/>
      <point x="621" y="-185" type="curve"/>
      <point x="598" y="-158" type="line"/>
      <point x="580" y="-176"/>
      <point x="560" y="-194"/>
      <point x="531" y="-194" type="curve" smooth="yes"/>
      <point x="503" y="-194"/>
      <point x="480" y="-175"/>
      <point x="480" y="-138" type="curve" smooth="yes"/>
      <point x="480" y="-89"/>
      <point x="507" y="-46"/>
      <point x="592" y="4" type="curve"/>
      <point x="583" y="12"/>
      <point x="578" y="25"/>
    </contour>
    <contour>
      <point x="564" y="0" type="line"/>
      <point x="679" y="0" type="line"/>
      <point x="679" y="38" type="line"/>
      <point x="674" y="38" type="line"/>
      <point x="640" y="38"/>
      <point x="618" y="40"/>
      <point x="609" y="66" type="curve" smooth="yes"/>
      <point x="381" y="710" type="line"/>
      <point x="325" y="710" type="line"/>
      <point x="325" y="689" type="line"/>
    </contour>
  </outline>
</glyph>
<glyph name="lslash" format="1">
  <advance width="296"/>
  <unicode hex="0142"/>
  <outline>
    <contour>
      <point x="29" y="209" type="line"/>
      <point x="283" y="468" type="line"/>
      <point x="283" y="526" type="line"/>
      <point x="29" y="268" type="line"/>
    </contour>
    <component base="l" xOffset="2"/>
  </outline>
</glyph>
<glyph name="ohorn" format="1">
  <advance width="598"/>
  <unicode hex="01A1"/>
  <outline>
    <contour>
      <point x="323" y="489" type="curve"/>
      <point x="510" y="479"/>
      <point x="564" y="544"/>
      <point x="568" y="683" type="curve"/>
      <point x="510" y="683" type="line"/>
      <point x="505" y="554"/>
      <point x="469" y="518"/>
      <point x="294" y="518" type="curve"/>
      <point x="301" y="511"/>
      <point x="316" y="495"/>
    </contour>
    <contour>
      <point x="293" y="-12" type="curve"/>
      <point x="437" y="-12"/>
      <point x="540" y="95"/>
      <point x="540" y="253" type="curve" smooth="yes"/>
      <point x="540" y="374"/>
      <point x="474" y="468"/>
      <point x="365" y="501" type="curve"/>
      <point x="350" y="512"/>
      <point x="322" y="518"/>
      <point x="293" y="518" type="curve" smooth="yes"/>
      <point x="149" y="518"/>
      <point x="45" y="410"/>
      <point x="45" y="253" type="curve" smooth="yes"/>
      <point x="45" y="95"/>
      <point x="149" y="-12"/>
    </contour>
    <contour>
      <point x="293" y="31" type="curve"/>
      <point x="181" y="31"/>
      <point x="112" y="118"/>
      <point x="112" y="253" type="curve" smooth="yes"/>
      <point x="112" y="386"/>
      <point x="181" y="475"/>
      <point x="293" y="475" type="curve" smooth="yes"/>
      <point x="404" y="475"/>
      <point x="473" y="386"/>
      <point x="473" y="253" type="curve" smooth="yes"/>
      <point x="473" y="117"/>
      <point x="404" y="31"/>
    </contour>
    <contour>
      <point x="293" y="538" type="move" name="top"/>
    </contour>
  </outline>
</glyph>
<glyph name="Oogonek" format="1">
  <advance width="769"/>
  <unicode hex="01EA"/>
  <outline>
    <contour>
      <point x="384" y="34" type="curve" smooth="yes"/>
      <point x="228" y="34"/>
      <point x="117" y="158"/>
      <point x="117" y="355" type="curve" smooth="yes"/>
      <point x="117" y="552"/>
      <point x="228" y="676"/>
      <point x="384" y="676" type="curve" smooth="yes"/>
      <point x="540" y="676"/>
      <point x="652" y="552"/>
      <point x="652" y="355" type="curve" smooth="yes"/>
      <point x="652" y="158"/>
      <point x="540" y="34"/>
    </contour>
    <contour>
      <point x="500" y="26" type="line"/>
      <point x="406" y="-22"/>
      <point x="337" y="-72"/>
      <point x="337" y="-142" type="curve" smooth="yes"/>
      <point x="337" y="-200"/>
      <point x="381" y="-234"/>
      <point x="439" y="-234" type="curve" smooth="yes"/>
      <point x="486" y="-234"/>
      <point x="516" y="-214"/>
      <point x="542" y="-185" type="curve"/>
      <point x="518" y="-158" type="line"/>
      <point x="501" y="-176"/>
      <point x="480" y="-194"/>
      <point x="452" y="-194" type="curve" smooth="yes"/>
      <point x="424" y="-194"/>
      <point x="401" y="-175"/>
      <point x="401" y="-138" type="curve" smooth="yes"/>
      <point x="401" y="-56"/>
      <point x="493" y="-15"/>
      <point x="586" y="57" type="curve" smooth="yes"/>
      <point x="672" y="123"/>
      <point x="722" y="228"/>
      <point x="722" y="355" type="curve" smooth="yes"/>
      <point x="722" y="572"/>
      <point x="575" y="720"/>
      <point x="384" y="720" type="curve" smooth="yes"/>
      <point x="194" y="720"/>
      <point x="47" y="572"/>
      <point x="47" y="355" type="curve" smooth="yes"/>
      <point x="47" y="139"/>
      <point x="194" y="-10"/>
      <point x="384" y="-10" type="curve" smooth="yes"/>
      <point x="422" y="-10"/>
      <point x="458" y="-5"/>
      <point x="491" y="6" type="curve"/>
    </contour>
  </outline>
</glyph>
<glyph name="dotlessj" format="1">
  <advance width="273"/>
  <unicode hex="0237"/>
  <outline>
    <contour>
      <point x="114" y="-61" type="line" smooth="yes"/>
      <point x="114" y="-159"/>
      <point x="74" y="-190"/>
      <point x="12" y="-190" type="curve" smooth="yes"/>
      <point x="-21" y="-190"/>
      <point x="-47" y="-183"/>
      <point x="-70" y="-175" type="curve"/>
      <point x="-70" y="-223" type="line"/>
      <point x="-51" y="-230"/>
      <point x="-22" y="-236"/>
      <point x="13" y="-236" type="curve" smooth="yes"/>
      <point x="94" y="-236"/>
      <point x="177" y="-199"/>
      <point x="177" y="-61" type="curve" smooth="yes"/>
      <point x="177" y="508" type="line"/>
      <point x="24" y="508" type="line"/>
      <point x="24" y="473" type="line"/>
      <point x="37" y="471" type="line" smooth="yes"/>
      <point x="90" y="463"/>
      <point x="114" y="455"/>
      <point x="114" y="426" type="curve" smooth="yes"/>
    </contour>
    <contour>
      <point x="137" y="531" type="move" name="top"/>
    </contour>
  </outline>
</glyph>
<glyph name="hungarumlaut" format="1">
  <advance width="500"/>
  <unicode hex="02DD"/>
  <outline>
    <contour>
      <point x="172" y="705" type="curve" smooth="yes"/>
      <point x="144" y="590" type="line"/>
      <point x="144" y="571" type="line"/>
      <point x="167" y="571" type="line"/>
      <point x="230" y="673" type="line" smooth="yes"/>
      <point x="241" y="692"/>
      <point x="250" y="708"/>
      <point x="250" y="724" type="curve" smooth="yes"/>
      <point x="250" y="744"/>
      <point x="236" y="756"/>
      <point x="217" y="756" type="curve" smooth="yes"/>
      <point x="193" y="756"/>
      <point x="181" y="740"/>
    </contour>
    <contour>
      <point x="313" y="705" type="curve" smooth="yes"/>
      <point x="285" y="590" type="line"/>
      <point x="285" y="571" type="line"/>
      <point x="308" y="571" type="line"/>
      <point x="370" y="673" type="line" smooth="yes"/>
      <point x="382" y="692"/>
      <point x="391" y="708"/>
      <point x="391" y="724" type="curve" smooth="yes"/>
      <point x="391" y="744"/>
      <point x="377" y="756"/>
      <point x="358" y="756" type="curve" smooth="yes"/>
      <point x="334" y="756"/>
      <point x="322" y="740"/>
    </contour>
    <contour>
      <point x="241" y="525" type="move" name="_top"/>
    </contour>
  </outline>
</glyph>
<glyph name="gravecomb" format="1">
  <unicode hex="0300"/>
  <outline>
    <component base="acute" xScale="-1.0" xOffset="-30"/>
    <contour>
      <point x="-134" y="531" type="move" name="_top"/>
    </contour>
  </outline>
</glyph>
<glyph name="dagger" format="1">
  <advance width="419"/>
  <unicode hex="2020"/>
  <outline>
    <contour>
      <point x="201" y="506" type="line"/>
      <point x="218" y="506" type="line"/>
      <point x="364" y="472" type="line"/>
      <point x="394" y="472" type="line"/>
      <point x="394" y="550" type="line"/>
      <point x="364" y="550" type="line"/>
      <point x="218" y="530" type="line"/>
      <point x="201" y="530" type="line"/>
      <point x="55" y="550" type="line"/>
      <point x="25" y="550" type="line"/>
      <point x="25" y="472" type="line"/>
      <point x="55" y="472" type="line"/>
    </contour>
    <contour>
      <point x="244" y="710" type="line"/>
      <point x="174" y="710" type="line"/>
      <point x="174" y="675" type="line" smooth="yes"/>
      <point x="174" y="640"/>
      <point x="191" y="585"/>
      <point x="191" y="514" type="curve" smooth="yes"/>
      <point x="191" y="440"/>
      <point x="185" y="403"/>
      <point x="172" y="377" type="curve"/>
      <point x="172" y="357" type="line" smooth="yes"/>
      <point x="172" y="316"/>
      <point x="188" y="219"/>
      <point x="195" y="0" type="curve"/>
      <point x="224" y="0" type="line"/>
      <point x="231" y="219"/>
      <point x="246" y="316"/>
      <point x="246" y="357" type="curve" smooth="yes"/>
      <point x="246" y="377" type="line"/>
      <point x="234" y="403"/>
      <point x="227" y="440"/>
      <point x="227" y="514" type="curve" smooth="yes"/>
      <point x="227" y="585"/>
      <point x="244" y="640"/>
      <point x="244" y="675" type="curve" smooth="yes"/>
    </contour>
  </outline>
</glyph>
<glyph name="daggerdbl" format="1">
  <advance width="419"/>
  <unicode hex="2021"/>
  <outline>
    <contour>
      <point x="201" y="506" type="line"/>
      <point x="218" y="506" type="line"/>
      <point x="364" y="472" type="line"/>
      <point x="394" y="472" type="line"/>
      <point x="394" y="550" type="line"/>
      <point x="364" y="550" type="line"/>
      <point x="218" y="530" type="line"/>
      <point x="201" y="530" type="line"/>
      <point x="55" y="550" type="line"/>
      <point x="25" y="550" type="line"/>
      <point x="25" y="472" type="line"/>
      <point x="55" y="472" type="line"/>
    </contour>
    <contour>
      <point x="201" y="204" type="line"/>
      <point x="55" y="238" type="line"/>
      <point x="25" y="238" type="line"/>
      <point x="25" y="160" type="line"/>
      <point x="55" y="160" type="line"/>
      <point x="201" y="180" type="line"/>
      <point x="218" y="180" type="line"/>
      <point x="364" y="160" type="line"/>
      <point x="394" y="160" type="line"/>
      <point x="394" y="238" type="line"/>
      <point x="364" y="238" type="line"/>
      <point x="218" y="204" type="line"/>
    </contour>
    <contour>
      <point x="171" y="339" type="line"/>
      <point x="184" y="300"/>
      <point x="192" y="259"/>
      <point x="192" y="195" type="curve"/>
      <point x="192" y="130"/>
      <point x="174" y="69"/>
      <point x="174" y="35" type="curve" smooth="yes"/>
      <point x="174" y="0" type="line"/>
      <point x="244" y="0" type="line"/>
      <point x="244" y="35" type="line" smooth="yes"/>
      <point x="244" y="69"/>
      <point x="226" y="130"/>
      <point x="226" y="195" type="curve"/>
      <point x="226" y="259"/>
      <point x="235" y="300"/>
      <point x="247" y="339" type="curve"/>
      <point x="247" y="371" type="line"/>
      <point x="235" y="410"/>
      <point x="226" y="451"/>
      <point x="226" y="515" type="curve"/>
      <point x="226" y="580"/>
      <point x="244" y="641"/>
      <point x="244" y="675" type="curve" smooth="yes"/>
      <point x="244" y="710" type="line"/>
      <point x="174" y="710" type="line"/>
      <point x="174" y="675" type="line" smooth="yes"/>
      <point x="174" y="641"/>
      <point x="192" y="580"/>
      <point x="192" y="515" type="curve"/>
      <point x="192" y="451"/>
      <point x="184" y="410"/>
      <point x="171" y="371" type="curve"/>
    </contour>
  </outline>
</glyph>
<glyph name="lira" format="1">
  <advance width="560"/>
  <unicode hex="20A4"/>
  <outline>
    <contour>
      <point x="38" y="433" type="line"/>
      <point x="38" y="393" type="line"/>
      <point x="400" y="393" type="line"/>
      <point x="400" y="433" type="line"/>
    </contour>
    <contour>
      <point x="38" y="278" type="line"/>
      <point x="38" y="238" type="line"/>
      <point x="400" y="238" type="line"/>
      <point x="400" y="278" type="line"/>
    </contour>
    <contour>
      <point x="27" y="-11" type="line"/>
      <point x="169" y="20"/>
      <point x="234" y="108"/>
      <point x="234" y="227" type="curve" smooth="yes"/>
      <point x="234" y="344"/>
      <point x="161" y="410"/>
      <point x="161" y="529" type="curve" smooth="yes"/>
      <point x="161" y="618"/>
      <point x="222" y="674"/>
      <point x="314" y="674" type="curve" smooth="yes"/>
      <point x="391" y="674"/>
      <point x="434" y="642"/>
      <point x="460" y="614" type="curve"/>
      <point x="461" y="622"/>
      <point x="454" y="654"/>
      <point x="432" y="655" type="curve"/>
      <point x="432" y="552" type="line"/>
      <point x="499" y="552" type="line"/>
      <point x="499" y="656" type="line"/>
      <point x="475" y="678"/>
      <point x="413" y="718"/>
      <point x="314" y="718" type="curve" smooth="yes"/>
      <point x="180" y="718"/>
      <point x="94" y="639"/>
      <point x="94" y="524" type="curve" smooth="yes"/>
      <point x="94" y="406"/>
      <point x="178" y="330"/>
      <point x="178" y="212" type="curve" smooth="yes"/>
      <point x="178" y="127"/>
      <point x="139" y="67"/>
      <point x="27" y="36" type="curve"/>
    </contour>
    <contour>
      <point x="168" y="112" type="line"/>
      <point x="260" y="39"/>
      <point x="304" y="-10"/>
      <point x="379" y="-10" type="curve" smooth="yes"/>
      <point x="475" y="-10"/>
      <point x="526" y="72"/>
      <point x="545" y="161" type="curve"/>
      <point x="503" y="177" type="line"/>
      <point x="484" y="102"/>
      <point x="451" y="55"/>
      <point x="382" y="55" type="curve" smooth="yes"/>
      <point x="328" y="55"/>
      <point x="268" y="87"/>
      <point x="193" y="150" type="curve"/>
    </contour>
  </outline>
</glyph>
<glyph name="won" format="1">
  <advance width="560"/>
  <unicode hex="20A9"/>
  <outline>
    <contour>
      <point x="-7" y="710" type="line"/>
      <point x="-7" y="672" type="line"/>
      <point x="-2" y="672" type="line" smooth="yes"/>
      <point x="25" y="672"/>
      <point x="44" y="669"/>
      <point x="48" y="635" type="curve" smooth="yes"/>
      <point x="120" y="0" type="line"/>
      <point x="194" y="0" type="line"/>
      <point x="288" y="684" type="line"/>
      <point x="278" y="689" type="line"/>
      <point x="378" y="0" type="line"/>
      <point x="452" y="0" type="line"/>
      <point x="512" y="629" type="line" smooth="yes"/>
      <point x="515" y="663"/>
      <point x="536" y="672"/>
      <point x="561" y="672" type="curve" smooth="yes"/>
      <point x="566" y="672" type="line"/>
      <point x="566" y="710" type="line"/>
      <point x="406" y="710" type="line"/>
      <point x="406" y="672" type="line"/>
      <point x="417" y="672" type="line" smooth="yes"/>
      <point x="443" y="672"/>
      <point x="473" y="665"/>
      <point x="473" y="654" type="curve"/>
      <point x="414" y="17" type="line"/>
      <point x="420" y="18" type="line"/>
      <point x="318" y="710" type="line"/>
      <point x="252" y="710" type="line"/>
      <point x="157" y="16" type="line"/>
      <point x="166" y="17" type="line"/>
      <point x="94" y="662" type="line"/>
      <point x="94" y="669"/>
      <point x="125" y="672"/>
      <point x="151" y="672" type="curve" smooth="yes"/>
      <point x="163" y="672" type="line"/>
      <point x="163" y="710" type="line"/>
    </contour>
    <contour>
      <point x="-7" y="447" type="line"/>
      <point x="-7" y="407" type="line"/>
      <point x="100" y="407" type="line"/>
      <point x="107" y="407" type="line"/>
      <point x="230" y="407" type="line"/>
      <point x="239" y="447" type="line"/>
    </contour>
    <contour>
      <point x="344" y="407" type="line"/>
      <point x="464" y="407" type="line"/>
      <point x="476" y="407" type="line"/>
      <point x="566" y="407" type="line"/>
      <point x="566" y="447" type="line"/>
      <point x="337" y="447" type="line"/>
    </contour>
    <contour>
      <point x="202" y="246" type="line"/>
      <point x="367" y="246" type="line"/>
      <point x="357" y="286" type="line"/>
      <point x="212" y="286" type="line"/>
    </contour>
    <contour>
      <point x="106" y="286" type="line"/>
      <point x="-7" y="286" type="line"/>
      <point x="-7" y="246" type="line"/>
      <point x="115" y="246" type="line"/>
    </contour>
    <contour>
      <point x="458" y="246" type="line"/>
      <point x="566" y="246" type="line"/>
      <point x="566" y="286" type="line"/>
      <point x="465" y="286" type="line"/>
    </contour>
  </outline>
</glyph>
<glyph name="manat" format="1">
  <advance width="560"/>
  <unicode hex="20BC"/>
  <outline>
    <contour>
      <point x="256" y="720" type="line"/>
      <point x="256" y="139" type="line"/>
      <point x="304" y="139" type="line"/>
      <point x="304" y="720" type="line"/>
    </contour>
    <contour>
      <point x="280" y="550" type="curve" smooth="yes"/>
      <point x="416" y="550"/>
      <point x="473" y="378"/>
      <point x="473" y="0" type="curve"/>
      <point x="539" y="0" type="line"/>
      <point x="539" y="373"/>
      <point x="452" y="590"/>
      <point x="280" y="590" type="curve" smooth="yes"/>
      <point x="108" y="590"/>
      <point x="21" y="373"/>
      <point x="21" y="0" type="curve"/>
      <point x="87" y="0" type="line"/>
      <point x="87" y="378"/>
      <point x="144" y="550"/>
    </contour>
  </outline>
</glyph>
<glyph name="approxequal" format="1">
  <advance width="560"/>
  <unicode hex="2248"/>
  <outline>
    <contour>
      <point x="361" y="321" type="curve" smooth="yes"/>
      <point x="438" y="321"/>
      <point x="470" y="386"/>
      <point x="487" y="447" type="curve"/>
      <point x="444" y="460" type="line"/>
      <point x="433" y="428"/>
      <point x="418" y="373"/>
      <point x="368" y="373" type="curve" smooth="yes"/>
      <point x="301" y="373"/>
      <point x="270" y="456"/>
      <point x="184" y="456" type="curve" smooth="yes"/>
      <point x="110" y="456"/>
      <point x="74" y="398"/>
      <point x="62" y="332" type="curve"/>
      <point x="106" y="320" type="line"/>
      <point x="114" y="359"/>
      <point x="130" y="406"/>
      <point x="180" y="406" type="curve" smooth="yes"/>
      <point x="241" y="406"/>
      <point x="283" y="321"/>
    </contour>
    <contour>
      <point x="361" y="115" type="curve" smooth="yes"/>
      <point x="438" y="115"/>
      <point x="470" y="180"/>
      <point x="487" y="241" type="curve"/>
      <point x="444" y="254" type="line"/>
      <point x="434" y="222"/>
      <point x="418" y="166"/>
      <point x="368" y="166" type="curve" smooth="yes"/>
      <point x="301" y="166"/>
      <point x="270" y="250"/>
      <point x="184" y="250" type="curve" smooth="yes"/>
      <point x="110" y="250"/>
      <point x="74" y="191"/>
      <point x="62" y="126" type="curve"/>
      <point x="106" y="114" type="line"/>
      <point x="114" y="153"/>
      <point x="130" y="199"/>
      <point x="180" y="199" type="curve" smooth="yes"/>
      <point x="241" y="199"/>
      <point x="283" y="115"/>
    </contour>
  </outline>
</glyph>
<glyph name="f_f" format="1">
  <advance width="709"/>
  <unicode hex="FB00"/>
  <outline>
    <contour>
      <point x="36" y="508" type="line"/>
      <point x="36" y="467" type="line"/>
      <point x="418" y="467" type="line"/>
      <point x="418" y="508" type="line"/>
    </contour>
    <contour>
      <point x="368" y="508" type="line"/>
      <point x="368" y="467" type="line"/>
      <point x="689" y="467" type="line"/>
      <point x="689" y="508" type="line"/>
    </contour>
    <contour>
      <point x="203" y="45" type="curve"/>
      <point x="203" y="568" type="line" smooth="yes"/>
      <point x="203" y="668"/>
      <point x="242" y="697"/>
      <point x="301" y="697" type="curve" smooth="yes"/>
      <point x="332" y="697"/>
      <point x="358" y="688"/>
      <point x="378" y="680" type="curve"/>
      <point x="378" y="727" type="line"/>
      <point x="361" y="733"/>
      <point x="331" y="737"/>
      <point x="303" y="737" type="curve" smooth="yes"/>
      <point x="215" y="737"/>
      <point x="140" y="693"/>
      <point x="140" y="568" type="curve" smooth="yes"/>
      <point x="140" y="71" type="line" smooth="yes"/>
      <point x="140" y="42"/>
      <point x="107" y="35"/>
      <point x="52" y="35" type="curve" smooth="yes"/>
      <point x="41" y="35" type="line"/>
      <point x="41" y="0" type="line"/>
      <point x="300" y="0" type="line"/>
      <point x="300" y="35" type="line"/>
      <point x="291" y="35" type="line" smooth="yes"/>
      <point x="241" y="35"/>
      <point x="203" y="38"/>
    </contour>
    <contour>
      <point x="472" y="45" type="line"/>
      <point x="472" y="38"/>
      <point x="433" y="35"/>
      <point x="387" y="35" type="curve" smooth="yes"/>
      <point x="373" y="35" type="line"/>
      <point x="373" y="0" type="line"/>
      <point x="643" y="0" type="line"/>
      <point x="643" y="35" type="line"/>
      <point x="630" y="35" type="line" smooth="yes"/>
      <point x="576" y="35"/>
      <point x="535" y="38"/>
      <point x="535" y="45" type="curve" smooth="yes"/>
      <point x="535" y="584" type="line" smooth="yes"/>
      <point x="535" y="685"/>
      <point x="576" y="710"/>
      <point x="637" y="710" type="curve" smooth="yes"/>
      <point x="667" y="710"/>
      <point x="694" y="702"/>
      <point x="714" y="695" type="curve"/>
      <point x="714" y="742" type="line"/>
      <point x="698" y="748"/>
      <point x="668" y="752"/>
      <point x="639" y="752" type="curve" smooth="yes"/>
      <point x="549" y="752"/>
      <point x="472" y="709"/>
      <point x="472" y="584" type="curve"/>
    </contour>
  </outline>
</glyph>
<glyph name="f_f_i" format="1">
  <advance width="974"/>
  <unicode hex="FB03"/>
  <outline>
    <contour>
      <point x="36" y="508" type="line"/>
      <point x="36" y="467" type="line"/>
      <point x="420" y="467" type="line"/>
      <point x="420" y="508" type="line"/>
    </contour>
    <contour>
      <point x="368" y="508" type="line"/>
      <point x="368" y="467" type="line"/>
      <point x="777" y="467" type="line"/>
      <point x="777" y="508" type="line"/>
    </contour>
    <contour>
      <point x="828" y="639" type="curve" smooth="yes"/>
      <point x="856" y="639"/>
      <point x="878" y="657"/>
      <point x="878" y="689" type="curve" smooth="yes"/>
      <point x="878" y="720"/>
      <point x="856" y="738"/>
      <point x="828" y="738" type="curve" smooth="yes"/>
      <point x="799" y="738"/>
      <point x="778" y="720"/>
      <point x="778" y="689" type="curve" smooth="yes"/>
      <point x="778" y="657"/>
      <point x="799" y="639"/>
    </contour>
    <contour>
      <point x="720" y="0" type="line"/>
      <point x="951" y="0" type="line"/>
      <point x="951" y="35" type="line"/>
      <point x="949" y="35" type="line" smooth="yes"/>
      <point x="901" y="35"/>
      <point x="867" y="42"/>
      <point x="867" y="71" type="curve" smooth="yes"/>
      <point x="867" y="508" type="line"/>
      <point x="719" y="508" type="line"/>
      <point x="719" y="467" type="line"/>
      <point x="730" y="467" type="line" smooth="yes"/>
      <point x="781" y="467"/>
      <point x="804" y="452"/>
      <point x="804" y="423" type="curve"/>
      <point x="804" y="45" type="line"/>
      <point x="804" y="38"/>
      <point x="759" y="35"/>
      <point x="731" y="35" type="curve" smooth="yes"/>
      <point x="720" y="35" type="line"/>
    </contour>
    <contour>
      <point x="203" y="45" type="curve"/>
      <point x="203" y="568" type="line" smooth="yes"/>
      <point x="203" y="668"/>
      <point x="242" y="697"/>
      <point x="301" y="697" type="curve" smooth="yes"/>
      <point x="332" y="697"/>
      <point x="358" y="688"/>
      <point x="378" y="680" type="curve"/>
      <point x="378" y="727" type="line"/>
      <point x="361" y="733"/>
      <point x="331" y="737"/>
      <point x="303" y="737" type="curve" smooth="yes"/>
      <point x="215" y="737"/>
      <point x="140" y="693"/>
      <point x="140" y="568" type="curve" smooth="yes"/>
      <point x="140" y="71" type="line"/>
      <point x="140" y="42"/>
      <point x="107" y="35"/>
      <point x="52" y="35" type="curve" smooth="yes"/>
      <point x="41" y="35" type="line"/>
      <point x="41" y="0" type="line"/>
      <point x="300" y="0" type="line"/>
      <point x="300" y="35" type="line"/>
      <point x="291" y="35" type="line" smooth="yes"/>
      <point x="241" y="35"/>
      <point x="203" y="38"/>
    </contour>
    <contour>
      <point x="472" y="45" type="line"/>
      <point x="472" y="38"/>
      <point x="434" y="35"/>
      <point x="381" y="35" type="curve" smooth="yes"/>
      <point x="373" y="35" type="line"/>
      <point x="373" y="0" type="line"/>
      <point x="638" y="0" type="line"/>
      <point x="638" y="35" type="line"/>
      <point x="625" y="35" type="line" smooth="yes"/>
      <point x="574" y="35"/>
      <point x="535" y="38"/>
      <point x="535" y="45" type="curve"/>
      <point x="535" y="582" type="line" smooth="yes"/>
      <point x="535" y="683"/>
      <point x="571" y="711"/>
      <point x="627" y="711" type="curve" smooth="yes"/>
      <point x="656" y="711"/>
      <point x="681" y="703"/>
      <point x="700" y="695" type="curve"/>
      <point x="700" y="742" type="line"/>
      <point x="684" y="748"/>
      <point x="656" y="752"/>
      <point x="628" y="752" type="curve" smooth="yes"/>
      <point x="544" y="752"/>
      <point x="472" y="707"/>
      <point x="472" y="582" type="curve"/>
    </contour>
  </outline>
</glyph>
<glyph name="F.alt" format="1">
  <advance width="590"/>
  <outline>
    <contour>
      <point x="175" y="376" type="line"/>
      <point x="175" y="334" type="line"/>
      <point x="442" y="334" type="line"/>
      <point x="442" y="376" type="line"/>
    </contour>
    <contour>
      <point x="205" y="666" type="line"/>
      <point x="362" y="666" type="line" smooth="yes"/>
      <point x="448" y="666"/>
      <point x="483" y="659"/>
      <point x="487" y="623" type="curve" smooth="yes"/>
      <point x="496" y="533" type="line"/>
      <point x="536" y="533" type="line"/>
      <point x="536" y="710" type="line"/>
      <point x="45" y="710" type="line"/>
      <point x="45" y="672" type="line"/>
      <point x="56" y="672" type="line" smooth="yes"/>
      <point x="105" y="672"/>
      <point x="141" y="665"/>
      <point x="141" y="636" type="curve" smooth="yes"/>
      <point x="141" y="74" type="line" smooth="yes"/>
      <point x="141" y="45"/>
      <point x="105" y="38"/>
      <point x="56" y="38" type="curve" smooth="yes"/>
      <point x="45" y="38" type="line"/>
      <point x="45" y="0" type="line"/>
      <point x="317" y="0" type="line"/>
      <point x="317" y="38" type="line"/>
      <point x="300" y="38" type="line" smooth="yes"/>
      <point x="257" y="38"/>
      <point x="205" y="39"/>
      <point x="205" y="74" type="curve" smooth="yes"/>
    </contour>
    <contour>
      <point x="464" y="263" type="line"/>
      <point x="464" y="448" type="line"/>
      <point x="429" y="448" type="line"/>
      <point x="429" y="441" type="line" smooth="yes"/>
      <point x="429" y="406"/>
      <point x="419" y="376"/>
      <point x="389" y="376" type="curve"/>
      <point x="389" y="334" type="line"/>
      <point x="419" y="334"/>
      <point x="429" y="304"/>
      <point x="429" y="270" type="curve" smooth="yes"/>
      <point x="429" y="263" type="line"/>
    </contour>
  </outline>
</glyph>
<glyph name="acute.ucpl" format="1">
  <advance width="500"/>
  <outline>
    <contour>
      <point x="185" y="843" type="curve" smooth="yes"/>
      <point x="178" y="768" type="line"/>
      <point x="178" y="750" type="line"/>
      <point x="201" y="750" type="line"/>
      <point x="239" y="819" type="line" smooth="yes"/>
      <point x="254" y="842"/>
      <point x="262" y="860"/>
      <point x="262" y="877" type="curve" smooth="yes"/>
      <point x="262" y="897"/>
      <point x="248" y="909"/>
      <point x="229" y="909" type="curve" smooth="yes"/>
      <point x="203" y="909"/>
      <point x="189" y="889"/>
    </contour>
    <contour>
      <point x="188" y="694" type="move" name="_top"/>
    </contour>
  </outline>
</glyph>
<glyph name="braceleft.uc" format="1">
  <advance width="329"/>
  <outline>
    <contour>
      <point x="236" y="288" type="curve"/>
      <point x="236" y="314"/>
      <point x="220" y="326"/>
      <point x="111" y="347" type="curve"/>
      <point x="111" y="353" type="line"/>
      <point x="220" y="373"/>
      <point x="236" y="386"/>
      <point x="236" y="412" type="curve" smooth="yes"/>
      <point x="236" y="449"/>
      <point x="135" y="559"/>
      <point x="135" y="629" type="curve" smooth="yes"/>
      <point x="135" y="691"/>
      <point x="197" y="724"/>
      <point x="309" y="724" type="curve"/>
      <point x="295" y="760" type="line"/>
      <point x="180" y="761"/>
      <point x="71" y="729"/>
      <point x="71" y="631" type="curve" smooth="yes"/>
      <point x="71" y="562"/>
      <point x="151" y="473"/>
      <point x="194" y="401" type="curve"/>
      <point x="205" y="413" type="line"/>
      <point x="50" y="364" type="line"/>
      <point x="50" y="335" type="line"/>
      <point x="205" y="286" type="line"/>
      <point x="194" y="298" type="line"/>
      <point x="151" y="227"/>
      <point x="71" y="137"/>
      <point x="71" y="68" type="curve" smooth="yes"/>
      <point x="71" y="-29"/>
      <point x="180" y="-61"/>
      <point x="295" y="-60" type="curve"/>
      <point x="309" y="-24" type="line"/>
      <point x="197" y="-24"/>
      <point x="135" y="9"/>
      <point x="135" y="70" type="curve" smooth="yes"/>
      <point x="135" y="141"/>
      <point x="236" y="250"/>
    </contour>
  </outline>
</glyph>
<glyph name="breve_hook" format="1">
  <advance width="510"/>
  <outline>
    <contour>
      <point x="157" y="831" type="line"/>
      <point x="162" y="869"/>
      <point x="194" y="904"/>
      <point x="258" y="904" type="curve" smooth="yes"/>
      <point x="320" y="904"/>
      <point x="354" y="879"/>
      <point x="354" y="836" type="curve" smooth="yes"/>
      <point x="354" y="787"/>
      <point x="305" y="765"/>
      <point x="246" y="761" type="curve"/>
      <point x="271" y="786" type="line"/>
      <point x="271" y="732" type="line"/>
      <point x="229" y="732" type="line"/>
      <point x="229" y="790" type="line"/>
      <point x="278" y="793"/>
      <point x="301" y="806"/>
      <point x="301" y="835" type="curve" smooth="yes"/>
      <point x="301" y="856"/>
      <point x="287" y="870"/>
      <point x="257" y="870" type="curve" smooth="yes"/>
      <point x="223" y="870"/>
      <point x="210" y="852"/>
      <point x="206" y="831" type="curve"/>
    </contour>
    <contour>
      <point x="252" y="587" type="curve" smooth="yes"/>
      <point x="179" y="587"/>
      <point x="128" y="636"/>
      <point x="123" y="736" type="curve"/>
      <point x="166" y="736" type="line"/>
      <point x="174" y="665"/>
      <point x="204" y="642"/>
      <point x="254" y="642" type="curve" smooth="yes"/>
      <point x="302" y="642"/>
      <point x="333" y="665"/>
      <point x="341" y="736" type="curve"/>
      <point x="381" y="736" type="line"/>
      <point x="376" y="636"/>
      <point x="324" y="587"/>
    </contour>
    <contour>
      <point x="261" y="525" type="move" name="_top"/>
    </contour>
  </outline>
</glyph>
<glyph name="breve_hook.uc" format="1">
  <advance width="505"/>
  <outline>
    <contour>
      <point x="157" y="984" type="line"/>
      <point x="162" y="1022"/>
      <point x="195" y="1057"/>
      <point x="258" y="1057" type="curve" smooth="yes"/>
      <point x="321" y="1057"/>
      <point x="354" y="1030"/>
      <point x="354" y="989" type="curve" smooth="yes"/>
      <point x="354" y="938"/>
      <point x="303" y="917"/>
      <point x="246" y="914" type="curve"/>
      <point x="271" y="939" type="line"/>
      <point x="271" y="886" type="line"/>
      <point x="229" y="886" type="line"/>
      <point x="229" y="943" type="line"/>
      <point x="276" y="945"/>
      <point x="302" y="957"/>
      <point x="302" y="988" type="curve" smooth="yes"/>
      <point x="302" y="1008"/>
      <point x="286" y="1023"/>
      <point x="258" y="1023" type="curve" smooth="yes"/>
      <point x="224" y="1023"/>
      <point x="211" y="1005"/>
      <point x="206" y="984" type="curve"/>
    </contour>
    <contour>
      <point x="252" y="759" type="curve" smooth="yes"/>
      <point x="170" y="759"/>
      <point x="120" y="803"/>
      <point x="114" y="884" type="curve"/>
      <point x="159" y="884" type="line"/>
      <point x="168" y="831"/>
      <point x="197" y="811"/>
      <point x="253" y="811" type="curve" smooth="yes"/>
      <point x="309" y="811"/>
      <point x="338" y="831"/>
      <point x="347" y="884" type="curve"/>
      <point x="389" y="884" type="line"/>
      <point x="382" y="803"/>
      <point x="333" y="759"/>
    </contour>
    <contour>
      <point x="252" y="724" type="move" name="_top"/>
    </contour>
  </outline>
</glyph>
<glyph name="circumflex_tilde" format="1">
  <advance width="500"/>
  <outline>
    <contour>
      <point x="308" y="773" type="curve" smooth="yes"/>
      <point x="357" y="773"/>
      <point x="385" y="812"/>
      <point x="401" y="877" type="curve"/>
      <point x="364" y="890" type="line"/>
      <point x="353" y="849"/>
      <point x="341" y="821"/>
      <point x="315" y="821" type="curve" smooth="yes"/>
      <point x="275" y="821"/>
      <point x="251" y="890"/>
      <point x="191" y="890" type="curve" smooth="yes"/>
      <point x="141" y="890"/>
      <point x="114" y="854"/>
      <point x="101" y="785" type="curve"/>
      <point x="138" y="772" type="line"/>
      <point x="147" y="818"/>
      <point x="158" y="843"/>
      <point x="185" y="843" type="curve" smooth="yes"/>
      <point x="221" y="843"/>
      <point x="244" y="773"/>
    </contour>
    <contour>
      <point x="285" y="726" type="line"/>
      <point x="389" y="595" type="line"/>
      <point x="389" y="585" type="line"/>
      <point x="355" y="585" type="line"/>
      <point x="230" y="694" type="line"/>
      <point x="262" y="694" type="line"/>
      <point x="137" y="585" type="line"/>
      <point x="112" y="585" type="line"/>
      <point x="112" y="595" type="line"/>
      <point x="214" y="726" type="line"/>
    </contour>
    <contour>
      <point x="242" y="551" type="move" name="_top"/>
    </contour>
  </outline>
</glyph>
<glyph name="commaaccent" format="1">
  <advance width="500"/>
  <outline>
    <contour>
      <point x="230" y="-284" type="line"/>
      <point x="279" y="-242"/>
      <point x="304" y="-198"/>
      <point x="304" y="-145" type="curve" smooth="yes"/>
      <point x="304" y="-106"/>
      <point x="282" y="-87"/>
      <point x="253" y="-87" type="curve" smooth="yes"/>
      <point x="228" y="-87"/>
      <point x="209" y="-104"/>
      <point x="209" y="-129" type="curve" smooth="yes"/>
      <point x="209" y="-154"/>
      <point x="228" y="-172"/>
      <point x="257" y="-172" type="curve" smooth="yes"/>
      <point x="268" y="-172"/>
      <point x="277" y="-169"/>
      <point x="284" y="-159" type="curve"/>
      <point x="276" y="-157"/>
      <point x="273" y="-155"/>
      <point x="270" y="-158" type="curve"/>
      <point x="269" y="-191"/>
      <point x="236" y="-231"/>
      <point x="189" y="-261" type="curve"/>
    </contour>
    <contour>
      <point x="245" y="33" type="move" name="_bottom"/>
    </contour>
  </outline>
</glyph>
<glyph name="dollar.altprop" format="1">
  <advance width="572"/>
  <outline>
    <contour>
      <point x="293" y="54" type="curve" smooth="yes"/>
      <point x="207" y="54"/>
      <point x="122" y="84"/>
      <point x="84" y="153" type="curve"/>
      <point x="77" y="126"/>
      <point x="93" y="96"/>
      <point x="115" y="92" type="curve"/>
      <point x="115" y="201" type="line"/>
      <point x="46" y="201" type="line"/>
      <point x="46" y="108" type="line"/>
      <point x="91" y="51"/>
      <point x="186" y="10"/>
      <point x="295" y="10" type="curve" smooth="yes"/>
      <point x="425" y="10"/>
      <point x="525" y="78"/>
      <point x="525" y="201" type="curve" smooth="yes"/>
      <point x="525" y="326"/>
      <point x="414" y="366"/>
      <point x="318" y="392" type="curve" smooth="yes"/>
      <point x="225" y="416"/>
      <point x="134" y="439"/>
      <point x="134" y="533" type="curve" smooth="yes"/>
      <point x="134" y="609"/>
      <point x="196" y="654"/>
      <point x="296" y="654" type="curve" smooth="yes"/>
      <point x="379" y="654"/>
      <point x="440" y="620"/>
      <point x="468" y="577" type="curve"/>
      <point x="475" y="605"/>
      <point x="456" y="628"/>
      <point x="436" y="631" type="curve"/>
      <point x="436" y="538" type="line"/>
      <point x="504" y="538" type="line"/>
      <point x="504" y="623" type="line"/>
      <point x="475" y="659"/>
      <point x="392" y="698"/>
      <point x="298" y="698" type="curve" smooth="yes"/>
      <point x="164" y="698"/>
      <point x="73" y="632"/>
      <point x="73" y="527" type="curve" smooth="yes"/>
      <point x="73" y="402"/>
      <point x="179" y="367"/>
      <point x="271" y="341" type="curve" smooth="yes"/>
      <point x="367" y="315"/>
      <point x="462" y="296"/>
      <point x="462" y="190" type="curve" smooth="yes"/>
      <point x="462" y="96"/>
      <point x="394" y="54"/>
    </contour>
    <contour>
      <point x="313" y="678" type="line"/>
      <point x="313" y="788" type="line"/>
      <point x="266" y="788" type="line"/>
      <point x="266" y="678" type="line"/>
    </contour>
    <contour>
      <point x="266" y="26" type="line"/>
      <point x="266" y="-120" type="line"/>
      <point x="313" y="-120" type="line"/>
      <point x="313" y="26" type="line"/>
    </contour>
  </outline>
</glyph>
<glyph name="dotaccentcomb" format="1">
  <outline>
    <contour>
      <point x="-293" y="639" type="curve" smooth="yes"/>
      <point x="-264" y="639"/>
      <point x="-243" y="657"/>
      <point x="-243" y="689" type="curve" smooth="yes"/>
      <point x="-243" y="720"/>
      <point x="-264" y="738"/>
      <point x="-293" y="738" type="curve" smooth="yes"/>
      <point x="-321" y="738"/>
      <point x="-342" y="720"/>
      <point x="-342" y="689" type="curve" smooth="yes"/>
      <point x="-342" y="657"/>
      <point x="-321" y="639"/>
    </contour>
    <contour>
      <point x="-143" y="526" type="move" name="_top"/>
    </contour>
  </outline>
</glyph>
<glyph name="f.alt" format="1">
  <advance width="377"/>
  <outline>
    <contour>
      <point x="36" y="508" type="line"/>
      <point x="36" y="467" type="line"/>
      <point x="357" y="467" type="line"/>
      <point x="357" y="508" type="line"/>
    </contour>
    <contour>
      <point x="309" y="710" type="curve"/>
      <point x="354" y="710"/>
      <point x="381" y="695"/>
      <point x="402" y="666" type="curve"/>
      <point x="413" y="689"/>
      <point x="397" y="708"/>
      <point x="372" y="719" type="curve"/>
      <point x="372" y="627" type="line"/>
      <point x="435" y="627" type="line"/>
      <point x="435" y="717" type="line"/>
      <point x="417" y="732"/>
      <point x="375" y="752"/>
      <point x="310" y="752" type="curve"/>
      <point x="212" y="752"/>
      <point x="140" y="699"/>
      <point x="140" y="587" type="curve" smooth="yes"/>
      <point x="140" y="71" type="line" smooth="yes"/>
      <point x="140" y="42"/>
      <point x="107" y="35"/>
      <point x="52" y="35" type="curve" smooth="yes"/>
      <point x="41" y="35" type="line"/>
      <point x="41" y="0" type="line"/>
      <point x="311" y="0" type="line"/>
      <point x="311" y="35" type="line"/>
      <point x="298" y="35" type="line" smooth="yes"/>
      <point x="244" y="35"/>
      <point x="203" y="38"/>
      <point x="203" y="45" type="curve" smooth="yes"/>
      <point x="203" y="587" type="line" smooth="yes"/>
      <point x="203" y="678"/>
      <point x="243" y="710"/>
    </contour>
  </outline>
</glyph>
<glyph name="f_i" format="1">
  <advance width="648"/>
  <outline>
    <contour>
      <point x="36" y="508" type="line"/>
      <point x="36" y="467" type="line"/>
      <point x="445" y="467" type="line"/>
      <point x="445" y="508" type="line"/>
    </contour>
    <contour>
      <point x="496" y="639" type="curve" smooth="yes"/>
      <point x="525" y="639"/>
      <point x="546" y="657"/>
      <point x="546" y="689" type="curve" smooth="yes"/>
      <point x="546" y="720"/>
      <point x="525" y="738"/>
      <point x="496" y="738" type="curve" smooth="yes"/>
      <point x="467" y="738"/>
      <point x="446" y="720"/>
      <point x="446" y="689" type="curve" smooth="yes"/>
      <point x="446" y="657"/>
      <point x="467" y="639"/>
    </contour>
    <contour>
      <point x="472" y="45" type="line"/>
      <point x="472" y="38"/>
      <point x="427" y="35"/>
      <point x="399" y="35" type="curve" smooth="yes"/>
      <point x="388" y="35" type="line"/>
      <point x="388" y="0" type="line"/>
      <point x="619" y="0" type="line"/>
      <point x="619" y="35" type="line"/>
      <point x="617" y="35" type="line" smooth="yes"/>
      <point x="569" y="35"/>
      <point x="535" y="42"/>
      <point x="535" y="71" type="curve" smooth="yes"/>
      <point x="535" y="508" type="line"/>
      <point x="388" y="508" type="line"/>
      <point x="388" y="467" type="line"/>
      <point x="398" y="467" type="line" smooth="yes"/>
      <point x="450" y="467"/>
      <point x="472" y="452"/>
      <point x="472" y="423" type="curve"/>
    </contour>
    <contour>
      <point x="307" y="0" type="line"/>
      <point x="307" y="35" type="line"/>
      <point x="294" y="35" type="line" smooth="yes"/>
      <point x="242" y="35"/>
      <point x="203" y="38"/>
      <point x="203" y="45" type="curve"/>
      <point x="203" y="582" type="line" smooth="yes"/>
      <point x="203" y="683"/>
      <point x="239" y="711"/>
      <point x="295" y="711" type="curve" smooth="yes"/>
      <point x="324" y="711"/>
      <point x="349" y="703"/>
      <point x="368" y="695" type="curve"/>
      <point x="368" y="742" type="line"/>
      <point x="352" y="748"/>
      <point x="324" y="752"/>
      <point x="297" y="752" type="curve" smooth="yes"/>
      <point x="212" y="752"/>
      <point x="140" y="707"/>
      <point x="140" y="582" type="curve" smooth="yes"/>
      <point x="140" y="71" type="line" smooth="yes"/>
      <point x="140" y="42"/>
      <point x="107" y="35"/>
      <point x="52" y="35" type="curve" smooth="yes"/>
      <point x="41" y="35" type="line"/>
      <point x="41" y="0" type="line"/>
    </contour>
  </outline>
</glyph>
<glyph name="five.den" format="1">
  <advance width="324"/>
  <outline>
    <contour>
      <point x="160" y="-14" type="curve" smooth="yes"/>
      <point x="88" y="-14"/>
      <point x="43" y="25"/>
      <point x="21" y="74" type="curve"/>
      <point x="53" y="96" type="line"/>
      <point x="68" y="60"/>
      <point x="102" y="21"/>
      <point x="157" y="21" type="curve" smooth="yes"/>
      <point x="205" y="21"/>
      <point x="238" y="54"/>
      <point x="238" y="110" type="curve" smooth="yes"/>
      <point x="238" y="160"/>
      <point x="209" y="189"/>
      <point x="165" y="189" type="curve" smooth="yes"/>
      <point x="129" y="189"/>
      <point x="107" y="171"/>
      <point x="88" y="144" type="curve"/>
      <point x="55" y="144" type="line"/>
      <point x="55" y="341" type="line"/>
      <point x="267" y="341" type="line"/>
      <point x="260" y="293" type="line"/>
      <point x="80" y="293" type="line"/>
      <point x="93" y="330" type="line"/>
      <point x="93" y="171" type="line"/>
      <point x="91" y="164"/>
      <point x="80" y="160"/>
      <point x="79" y="171" type="curve"/>
      <point x="99" y="202"/>
      <point x="131" y="223"/>
      <point x="177" y="223" type="curve" smooth="yes"/>
      <point x="252" y="223"/>
      <point x="297" y="172"/>
      <point x="297" y="110" type="curve" smooth="yes"/>
      <point x="297" y="37"/>
      <point x="242" y="-14"/>
    </contour>
  </outline>
</glyph>
<glyph name="hookabovecomb" format="1">
  <outline>
    <contour>
      <point x="-405" y="714" type="line"/>
      <point x="-395" y="746"/>
      <point x="-359" y="778"/>
      <point x="-293" y="778" type="curve" smooth="yes"/>
      <point x="-221" y="778"/>
      <point x="-181" y="747"/>
      <point x="-181" y="695" type="curve" smooth="yes"/>
      <point x="-181" y="633"/>
      <point x="-241" y="609"/>
      <point x="-306" y="603" type="curve"/>
      <point x="-276" y="632" type="line"/>
      <point x="-276" y="569" type="line"/>
      <point x="-332" y="569" type="line"/>
      <point x="-332" y="641" type="line"/>
      <point x="-279" y="644"/>
      <point x="-256" y="662"/>
      <point x="-256" y="691" type="curve" smooth="yes"/>
      <point x="-256" y="715"/>
      <point x="-269" y="729"/>
      <point x="-297" y="729" type="curve" smooth="yes"/>
      <point x="-324" y="729"/>
      <point x="-343" y="713"/>
      <point x="-354" y="695" type="curve"/>
    </contour>
    <contour>
      <point x="-143" y="517" type="move" name="_top"/>
    </contour>
  </outline>
</glyph>
<glyph name="horncomb" format="1">
  <outline>
    <contour>
      <point x="-419" y="489" type="curve"/>
      <point x="-232" y="479"/>
      <point x="-178" y="544"/>
      <point x="-174" y="683" type="curve"/>
      <point x="-233" y="683" type="line"/>
      <point x="-238" y="554"/>
      <point x="-273" y="518"/>
      <point x="-449" y="518" type="curve"/>
      <point x="-442" y="511"/>
      <point x="-427" y="495"/>
    </contour>
    <contour>
      <point x="-142" y="444" type="move" name="_top"/>
    </contour>
  </outline>
</glyph>
<glyph name="lira.alt" format="1">
  <advance width="560"/>
  <outline>
    <contour>
      <point x="516" y="0" type="line"/>
      <point x="516" y="183" type="line"/>
      <point x="474" y="183" type="line"/>
      <point x="465" y="93" type="line" smooth="yes"/>
      <point x="462" y="57"/>
      <point x="426" y="50"/>
      <point x="340" y="50" type="curve" smooth="yes"/>
      <point x="76" y="50" type="line"/>
      <point x="108" y="40" type="line"/>
      <point x="194" y="82"/>
      <point x="242" y="159"/>
      <point x="242" y="239" type="curve" smooth="yes"/>
      <point x="242" y="346"/>
      <point x="166" y="411"/>
      <point x="166" y="526" type="curve" smooth="yes"/>
      <point x="166" y="620"/>
      <point x="230" y="674"/>
      <point x="315" y="674" type="curve" smooth="yes"/>
      <point x="387" y="674"/>
      <point x="434" y="644"/>
      <point x="463" y="617" type="curve"/>
      <point x="462" y="632"/>
      <point x="451" y="651"/>
      <point x="433" y="660" type="curve"/>
      <point x="433" y="559" type="line"/>
      <point x="499" y="559" type="line"/>
      <point x="499" y="660" type="line"/>
      <point x="472" y="683"/>
      <point x="411" y="718"/>
      <point x="315" y="718" type="curve" smooth="yes"/>
      <point x="189" y="718"/>
      <point x="99" y="641"/>
      <point x="99" y="524" type="curve" smooth="yes"/>
      <point x="99" y="406"/>
      <point x="188" y="329"/>
      <point x="188" y="232" type="curve" smooth="yes"/>
      <point x="188" y="144"/>
      <point x="121" y="93"/>
      <point x="48" y="53" type="curve"/>
      <point x="48" y="0" type="line"/>
    </contour>
    <contour>
      <point x="45" y="439" type="line"/>
      <point x="45" y="398" type="line"/>
      <point x="402" y="398" type="line"/>
      <point x="402" y="439" type="line"/>
    </contour>
    <contour>
      <point x="45" y="284" type="line"/>
      <point x="45" y="243" type="line"/>
      <point x="402" y="243" type="line"/>
      <point x="402" y="284" type="line"/>
    </contour>
  </outline>
</glyph>
<glyph name="lira.proportional" format="1">
  <advance width="612"/>
  <outline>
    <contour>
      <point x="419" y="-6" type="curve" smooth="yes"/>
      <point x="506" y="-6"/>
      <point x="554" y="60"/>
      <point x="574" y="148" type="curve"/>
      <point x="533" y="164" type="line"/>
      <point x="513" y="92"/>
      <point x="484" y="58"/>
      <point x="425" y="58" type="curve" smooth="yes"/>
      <point x="363" y="58"/>
      <point x="300" y="94"/>
      <point x="225" y="161" type="curve"/>
      <point x="216" y="158"/>
      <point x="208" y="136"/>
      <point x="200" y="120" type="curve"/>
      <point x="291" y="43"/>
      <point x="339" y="-6"/>
    </contour>
    <contour>
      <point x="45" y="436" type="line"/>
      <point x="45" y="396" type="line"/>
      <point x="426" y="396" type="line"/>
      <point x="426" y="436" type="line"/>
    </contour>
    <contour>
      <point x="45" y="280" type="line"/>
      <point x="45" y="239" type="line"/>
      <point x="426" y="239" type="line"/>
      <point x="426" y="280" type="line"/>
    </contour>
    <contour>
      <point x="340" y="674" type="curve" smooth="yes"/>
      <point x="421" y="674"/>
      <point x="464" y="642"/>
      <point x="489" y="614" type="curve"/>
      <point x="491" y="622"/>
      <point x="484" y="654"/>
      <point x="462" y="655" type="curve"/>
      <point x="462" y="558" type="line"/>
      <point x="529" y="558" type="line"/>
      <point x="529" y="656" type="line"/>
      <point x="505" y="678"/>
      <point x="443" y="718"/>
      <point x="339" y="718" type="curve" smooth="yes"/>
      <point x="200" y="718"/>
      <point x="107" y="640"/>
      <point x="107" y="521" type="curve" smooth="yes"/>
      <point x="107" y="402"/>
      <point x="194" y="319"/>
      <point x="194" y="215" type="curve" smooth="yes"/>
      <point x="194" y="121"/>
      <point x="146" y="73"/>
      <point x="45" y="44" type="curve"/>
      <point x="45" y="-5" type="line"/>
      <point x="179" y="26"/>
      <point x="252" y="104"/>
      <point x="252" y="222" type="curve" smooth="yes"/>
      <point x="252" y="336"/>
      <point x="174" y="409"/>
      <point x="174" y="524" type="curve" smooth="yes"/>
      <point x="174" y="620"/>
      <point x="240" y="674"/>
    </contour>
  </outline>
</glyph>
<glyph name="parenleft.uc" format="1">
  <advance width="319"/>
  <outline>
    <contour>
      <point x="119" y="360" type="curve" smooth="yes"/>
      <point x="119" y="164"/>
      <point x="213" y="36"/>
      <point x="294" y="-34" type="curve"/>
      <point x="294" y="-37" type="line"/>
      <point x="244" y="-37" type="line"/>
      <point x="147" y="30"/>
      <point x="55" y="167"/>
      <point x="55" y="360" type="curve" smooth="yes"/>
      <point x="55" y="542"/>
      <point x="147" y="678"/>
      <point x="244" y="747" type="curve"/>
      <point x="294" y="747" type="line"/>
      <point x="294" y="744" type="line"/>
      <point x="213" y="673"/>
      <point x="119" y="544"/>
    </contour>
  </outline>
</glyph>
<glyph name="peseta.proportional" format="1">
  <advance width="807"/>
  <outline>
    <contour>
      <point x="44" y="0" type="line"/>
      <point x="302" y="0" type="line"/>
      <point x="302" y="38" type="line"/>
      <point x="275" y="38" type="line" smooth="yes"/>
      <point x="242" y="38"/>
      <point x="200" y="41"/>
      <point x="200" y="48" type="curve" smooth="yes"/>
      <point x="200" y="277" type="line"/>
      <point x="235" y="277" type="line" smooth="yes"/>
      <point x="399" y="277"/>
      <point x="489" y="367"/>
      <point x="489" y="497" type="curve" smooth="yes"/>
      <point x="489" y="627"/>
      <point x="404" y="710"/>
      <point x="240" y="710" type="curve" smooth="yes"/>
      <point x="44" y="710" type="line"/>
      <point x="44" y="672" type="line"/>
      <point x="55" y="672" type="line" smooth="yes"/>
      <point x="101" y="672"/>
      <point x="135" y="665"/>
      <point x="135" y="636" type="curve" smooth="yes"/>
      <point x="135" y="74" type="line" smooth="yes"/>
      <point x="135" y="45"/>
      <point x="101" y="38"/>
      <point x="55" y="38" type="curve" smooth="yes"/>
      <point x="44" y="38" type="line"/>
    </contour>
    <contour>
      <point x="240" y="667" type="line" smooth="yes"/>
      <point x="364" y="667"/>
      <point x="421" y="604"/>
      <point x="421" y="496" type="curve" smooth="yes"/>
      <point x="421" y="389"/>
      <point x="364" y="319"/>
      <point x="235" y="319" type="curve" smooth="yes"/>
      <point x="200" y="319" type="line"/>
      <point x="200" y="667" type="line"/>
    </contour>
    <contour>
      <point x="464" y="465" type="line"/>
      <point x="776" y="465" type="line"/>
      <point x="776" y="508" type="line"/>
      <point x="619" y="508" type="line"/>
      <point x="583" y="553" type="line"/>
      <point x="583" y="512"/>
      <point x="556" y="503"/>
      <point x="501" y="503" type="curve" smooth="yes"/>
      <point x="464" y="503" type="line"/>
    </contour>
    <contour>
      <point x="637" y="136" type="curve" smooth="yes"/>
      <point x="637" y="648" type="line"/>
      <point x="583" y="648" type="line"/>
      <point x="583" y="500" type="line"/>
      <point x="574" y="492" type="line"/>
      <point x="574" y="136" type="line" smooth="yes"/>
      <point x="574" y="21"/>
      <point x="641" y="-11"/>
      <point x="715" y="-11" type="curve" smooth="yes"/>
      <point x="743" y="-11"/>
      <point x="766" y="-5"/>
      <point x="782" y="1" type="curve"/>
      <point x="782" y="44" type="line"/>
      <point x="768" y="40"/>
      <point x="748" y="35"/>
      <point x="724" y="35" type="curve" smooth="yes"/>
      <point x="672" y="35"/>
      <point x="637" y="61"/>
    </contour>
  </outline>
</glyph>
<glyph name="question.alt" format="1">
  <advance width="505"/>
  <outline>
    <contour>
      <point x="370" y="562" type="curve" smooth="yes"/>
      <point x="370" y="630"/>
      <point x="329" y="674"/>
      <point x="247" y="674" type="curve" smooth="yes"/>
      <point x="170" y="674"/>
      <point x="123" y="636"/>
      <point x="90" y="586" type="curve"/>
      <point x="93" y="617"/>
      <point x="103" y="642"/>
      <point x="124" y="644" type="curve"/>
      <point x="124" y="548" type="line"/>
      <point x="57" y="548" type="line"/>
      <point x="57" y="628" type="line"/>
      <point x="89" y="671"/>
      <point x="153" y="718"/>
      <point x="247" y="718" type="curve" smooth="yes"/>
      <point x="365" y="718"/>
      <point x="436" y="658"/>
      <point x="436" y="565" type="curve" smooth="yes"/>
      <point x="436" y="412"/>
      <point x="254" y="392"/>
      <point x="254" y="243" type="curve" smooth="yes"/>
      <point x="254" y="186" type="line"/>
      <point x="205" y="186" type="line"/>
      <point x="205" y="235" type="line" smooth="yes"/>
      <point x="205" y="412"/>
      <point x="370" y="427"/>
    </contour>
    <component base="period" xOffset="121"/>
  </outline>
</glyph>
<glyph name="six.den" format="1">
  <advance width="324"/>
  <outline>
    <contour>
      <point x="258" y="324" type="line"/>
      <point x="146" y="308"/>
      <point x="88" y="237"/>
      <point x="88" y="142" type="curve" smooth="yes"/>
      <point x="88" y="61"/>
      <point x="119" y="28"/>
      <point x="164" y="28" type="curve" smooth="yes"/>
      <point x="207" y="28"/>
      <point x="235" y="62"/>
      <point x="235" y="116" type="curve" smooth="yes"/>
      <point x="235" y="160"/>
      <point x="217" y="192"/>
      <point x="172" y="192" type="curve" smooth="yes"/>
      <point x="129" y="192"/>
      <point x="95" y="160"/>
      <point x="74" y="116" type="curve"/>
      <point x="67" y="146" type="line"/>
      <point x="82" y="184"/>
      <point x="125" y="226"/>
      <point x="182" y="226" type="curve" smooth="yes"/>
      <point x="250" y="226"/>
      <point x="294" y="184"/>
      <point x="294" y="117" type="curve" smooth="yes"/>
      <point x="294" y="46"/>
      <point x="240" y="-6"/>
      <point x="165" y="-6" type="curve" smooth="yes"/>
      <point x="86" y="-6"/>
      <point x="30" y="45"/>
      <point x="30" y="142" type="curve" smooth="yes"/>
      <point x="30" y="249"/>
      <point x="111" y="340"/>
      <point x="253" y="358" type="curve"/>
    </contour>
  </outline>
</glyph>
<glyph name="tilde.uc" format="1">
  <advance width="500"/>
  <outline>
    <contour>
      <point x="311" y="769" type="curve" smooth="yes"/>
      <point x="362" y="769"/>
      <point x="393" y="805"/>
      <point x="410" y="867" type="curve"/>
      <point x="371" y="880" type="line"/>
      <point x="359" y="842"/>
      <point x="346" y="818"/>
      <point x="319" y="818" type="curve" smooth="yes"/>
      <point x="276" y="818"/>
      <point x="248" y="880"/>
      <point x="182" y="880" type="curve" smooth="yes"/>
      <point x="130" y="880"/>
      <point x="100" y="846"/>
      <point x="88" y="781" type="curve"/>
      <point x="126" y="767" type="line"/>
      <point x="134" y="808"/>
      <point x="147" y="831"/>
      <point x="175" y="831" type="curve" smooth="yes"/>
      <point x="215" y="831"/>
      <point x="240" y="769"/>
    </contour>
    <contour>
      <point x="250" y="694" type="move" name="_top"/>
    </contour>
  </outline>
</glyph>
